<svg width="765" height="765" viewBox="0 0 765 765" fill="none" xmlns="http://www.w3.org/2000/svg">
<path d="M382.47 2.91406C341.927 27.2145 301.03 55.9012 260.765 88.6453C209.139 93.9635 159.935 102.598 114.083 114.083C102.598 159.935 93.9636 209.139 88.6454 260.765C55.9013 301.03 27.2145 341.927 2.91406 382.47C27.2146 423.013 55.9013 463.911 88.6455 504.176C93.9637 555.802 102.598 605.005 114.083 650.857C159.935 662.342 209.138 670.976 260.764 676.294C301.029 709.039 341.927 737.726 382.47 762.027C423.014 737.726 463.911 709.039 504.177 676.294C555.803 670.976 605.006 662.342 650.857 650.857C662.342 605.006 670.976 555.802 676.294 504.177C709.039 463.911 737.726 423.014 762.027 382.47C737.726 341.927 709.039 301.029 676.294 260.764C670.976 209.138 662.342 159.934 650.857 114.083C605.005 102.598 555.802 93.9636 504.176 88.6454C463.911 55.9012 423.013 27.2145 382.47 2.91406Z" fill="#2A2A2A" stroke="#808080" stroke-width="5"/>
</svg>
