<svg width="760" height="760" viewBox="0 0 760 760" fill="none" xmlns="http://www.w3.org/2000/svg">
<path d="M379.556 0C339.013 24.3005 298.116 52.9871 257.851 85.7313C206.225 91.0495 157.021 99.6837 111.169 111.169C99.6838 157.021 91.0496 206.225 85.7314 257.851C52.9872 298.116 24.3005 339.013 0 379.556C24.3005 420.099 52.9872 460.997 85.7315 501.262C91.0497 552.888 99.6839 602.091 111.169 647.943C157.02 659.428 206.224 668.062 257.85 673.38C298.115 706.125 339.013 734.812 379.556 759.113C420.1 734.812 460.997 706.125 501.263 673.38C552.888 668.062 602.092 659.428 647.943 647.943C659.428 602.092 668.062 552.888 673.38 501.263C706.125 460.997 734.812 420.1 759.113 379.556C734.812 339.013 706.125 298.115 673.38 257.85C668.062 206.224 659.428 157.02 647.943 111.169C602.091 99.6837 552.888 91.0496 501.262 85.7313C460.996 52.9872 420.099 24.3005 379.556 0Z" fill="black"/>
<path d="M108.752 267.086C104.981 303.5 103 341.224 103 379.873C103 418.127 104.941 455.475 108.637 491.543C113.536 539.352 121.519 584.914 132.151 627.361C174.636 638.003 220.242 645.99 268.098 650.888L491.18 379.873V650.888C539.036 645.99 584.642 638.002 627.126 627.361C637.758 584.914 645.741 539.353 650.64 491.544C654.336 455.475 656.278 418.128 656.278 379.873C656.278 341.223 654.296 303.499 650.525 267.085C645.616 219.683 637.676 174.501 627.126 132.386C585.049 121.846 539.91 113.91 492.555 109L268.098 379.873L266.724 109C219.368 113.91 174.229 121.846 132.151 132.386C121.602 174.501 113.661 219.684 108.752 267.086Z" fill="white"/>
</svg>
