<svg width="554" height="554" viewBox="0 0 554 554" fill="none" xmlns="http://www.w3.org/2000/svg">
<path d="M29.1514 29.1514C18.602 71.267 10.6611 116.449 5.75234 163.851C1.98148 200.266 0 237.989 0 276.639C0 314.893 1.94115 352.24 5.63719 388.308C10.5364 436.118 18.5191 481.68 29.1514 524.126C71.636 534.768 117.242 542.756 165.098 547.654C201.126 551.341 238.43 553.278 276.639 553.278C314.848 553.278 352.152 551.341 388.18 547.654C436.036 542.755 481.642 534.768 524.126 524.126C534.758 481.68 542.741 436.119 547.64 388.309C551.336 352.241 553.278 314.893 553.278 276.639C553.278 237.989 551.296 200.265 547.525 163.85C542.616 116.449 534.676 71.2667 524.126 29.1514C482.049 18.6115 436.91 10.6754 389.555 5.76569C353.101 1.98616 315.334 0 276.639 0C237.944 0 200.177 1.98611 163.724 5.76558C116.368 10.6753 71.2291 18.6115 29.1514 29.1514Z" fill="#D9D9D9"/>
</svg>
